<svg xmlns="http://www.w3.org/2000/svg" fill="currentColor" viewBox="0 0 1023 255"><path d="m42.7 0 91.94 218.06L228.9 0h44.87L254.6 11.16c-3.7 3.51-9.75 11.8-9.82 16.9s16.05 42.68 19.5 50c4.02 8.55 7.95-5.12 11.75-9.46 38.4-43.9 98.78-71.68 156.27-48.78 23.1 9.2 27.78 18.5 42.73 35.74 1 1.14 1.2 6 5.04 2.88 1.33-1.06 11.35-29.34 10.9-32.11-.51-3.15-8.09-13.83-10.76-16.3L462.15 0h44.88l94.24 218.06L693.22 0h42.62c1 8.64-8.92 1.88-14.77 6.55a8.5 8.5 0 0 0-2.74 4l-.38 231.07c1.9 11.48 13.35 4.27 17.92 12.4H675.3v-4.48c5.93 1.5 17.94-.6 17.94-7.87V13.49c-3.24-.5-2.97 3.77-3.91 6.17-27.32 69.47-58.05 138.1-83.2 208.01L616.96 254l-26.64-.24L493.6 33.72 481 66.34c22.07 40.52 13.14 86.1-14.37 121.33-12.4 15.85-23.14 11.52-5.62 32.66 15.04 18.16 49.46 33.79 72.5 27.64 16.52-4.42 17.6-8.93 21.27-23.65.56-2.3.65-6.78 3.82-6.26v35.97h-34.78c-5.82 0-23.36-4.08-29.79-6.1-19.06-6.01-39.52-21.55-45.37-41.1-46.98 36.02-117.55 55.02-164.85 9.03-13.6 19.41-32.78 31.66-56.27 35.74-2.9.5-16.35 2.45-17.74 2.45h-32.53v-35.97l6.25 17.35c10.14 21.3 50.83 12.52 67.87 4.08 6.14-3.04 30.89-22.02 28.06-28.21-.97-2.1-6.75-5.92-8.95-9.1-22.82-32.74-26.98-78.44-6.63-113.39L242.3 33.75l-96.72 220.03-26.64.25c-3.01-2.81 13.76-25.7 10.32-31.5L42.69 13.49v228.18c0 1.13 4.03 6.91 5.94 7.53 5.93 1.95 13.83-3.13 12 4.83H.07c4.54-8.14 15.98-.93 17.92-12.4L17.6 10.54a8.5 8.5 0 0 0-2.74-4C9 1.88-.92 8.65.06 0zm231.04 107.9c-5.26-1.29-3.67 1.12-5.06 2.86-17.07 21.53-14.64 52.57-2.86 75.91 1.28 2.54 15.78 24.83 19.16 20.14.38-.55 3.48-11.02 3.95-12.93 7.7-31.57-6.25-56.79-15.17-86zm170.52 65.17 20.16-14.59c22.57-24.54 29.7-55.25 15.7-86.54-3.1-.3-3.7 4.99-4.82 7.5-13.21 29.66-27.01 61.25-31.04 93.63m-4.95 6.37c1.71-40.69 23.7-75.57 36.13-113.17-8.32-24.54-37.25-36.1-61.62-34.88-34.51 1.74-87.66 27.8-115.24 48.6-4.52 3.4-20.98 16.35-22.26 20.5-2.23 7.33 10.3 30.55 12.97 40.14 2.47 8.85 6.57 25.2 6.68 33.82.18 12.88-7.26 26.35-8.66 38.91 51.5 25.47 107.64-8.18 151.98-33.95zm583.66-109.75c-11.3 17.92-12.8 42.7-26.9 58.45-1.9-8.21 6.58-16.08 6.11-23.25-.63-9.43-10.32-26.35-12.86-36.3 2.4-3.66 5 .33 6.3 2.69 2.76 5.01 5.3 16.03 7.19 22.04.74 2.39.27 6.9 4.45 3.34.97-.84 7.06-20.62 8.41-24.3 1.89-5.14-.57-5.84 7.33-4.91v2.24zM771.16 47.6c6.03-1.15 24.82 5.15 25.23 9.71.24 2.84-3.71 3.74-7.78 1.09-2.27-1.5-2.56-3.68-6.8-4.45-39.38-7.07-31.7 62.1 2.82 47.72 4.52-1.88 7.48-10.48 11.76-3.9-40.9 41.16-67.99-42-25.23-50.17m222.66 138.98h-33.66c3.4 7.85 8.93 16.22 18.66 13.13 3.64-1.16 7.38-9.77 12.75-5.26-11.02 15.83-32.96 12.97-35.8-6.87-4.6-32.25 41.01-33.68 38.07-.98zm-19.07-19.25c-5.6 0-10.68 3.74-12.74 8.75-.88 2.13-3.17 2.92.36 4.94 3.82 2.2 26.75 2.3 26.93-2.29s-9.33-11.38-14.55-11.38zm-21.31-59.42-4.5-6.76c-23.24 23.88-44.71-18.67-22.25-32.43 10.99-6.74 13.17-.57 21.18 3.22 1.62.77-.23-7.3 5.59-4.5v40.47zm-7.24-33.2c-2.1-2.1-8.77-3.11-11.85-2.98-17.35.78-15.94 32.8 2.12 31.66 13.04-.81 16.52-21.9 9.73-28.68M832.29 175.35c-5.62-4.01-13.58-15.21-19.09-4.53s10.3 8.93 15.85 13.42c15.9 12.82-10.75 31.14-21.02 14.31-2.36-3.87-3.57-4.2.74-7.43 3.33 10.63 20.48 13.6 19.2 1.08-.92-9.07-18.86-4.44-20.39-15.83-2.31-17.12 24.98-19.5 24.73-1.02zm89.74-11.24c.23-.28 6.48-1 6.77 1.29 1.46 11.47 2 39.19-14.57 39.35-18.43.18-15.29-24.16-14.63-37.31.18-3.67 1.97-6.26 4.47-3.33 1.64 1.92-2.14 24.87 1.12 31.47 3.62 7.3 16.84 3.18 16.84 2.25zm-13.46-56.2c-2.48 2.92-4.3.36-4.5-3.34-.47-9.54 1.64-21.09-1.6-29.89-1.64-4.44-8.94-3.56-12.63-2.38-8.59 2.72-5.56 24.54-5.94 32.27-.22 4.38.25 3.52-4.5 3.34V67.45l5.6 4.49c4.84-10.12 23.57-5.24 23.57 3.38 0 4.92 1.05 31.36 0 32.59M796.4 204.56h-4.5v-32.58c0-1.07-5.9-4.88-7.87-4.88-14.11 0-9.64 25.17-10.07 34.13-.22 4.38.25 3.52-4.5 3.33v-40.45c6.4 3.62 10.82-2.86 16.35-1.96 2.43.41 10.59 6.06 10.59 7.56zm11.22-137.11c3.26 3.8-7.13 36.17 10.09 36.17 14.12 0 9.58-22.88 10.1-32.84.17-3.67 1.97-6.28 4.47-3.33 2.09 2.45 2.47 35.67-8.84 39.46-23.78 7.96-21.08-20.66-20.32-36.13.18-3.67 1.98-6.26 4.47-3.33zM848 150.6c.58.8-.65 6.94.27 9.89 1.24 3.95 15.96 5.3-.4 9.32 1.14 7.71-1.17 17.4.06 24.7.86 4.96 10.61 6.67 6.77 10.04-.92.82-8.63.32-10.23-2.1-5.6-8.6 6.48-32.91-7.7-37.24.46-2.57 5.14-.18 6.6-1.23.63-.45-1.24-21.18 4.61-13.4zm38.13.02L886 162.9l6.86 1.23c-.13 3.7-6.18 3.35-6.8 5.99-.8 3.37-.69 24.72-.06 28.75.48 3.1 9.06-1.81 6.86 5.7-18.77 3.26-8.95-22.84-11.08-34.75l-6.88-1.22c-1.8-7.42 4.47-3.11 6.56-4.6 2.23-1.62-4.07-15.8 4.66-13.39zm58.32 0c.99 1.18-1.1 12.43.18 13.38 1.8 1.37 7.9-2.44 6.56 3.45l-6.88 2.36v29.05l6.86 5.7c-23.8 2.7-.56-33.23-17.94-39.35.47-2.57 5.15-.18 6.6-1.23.64-.45-1.5-20.55 4.6-13.38zm22.46-83.18c3.89-4.67 4.67 4.92 5.6 4.49l11.21-6.76c4.86 8.66-2.54 5.7-6.81 8.84-8.07 5.97-5.03 21.48-5.5 30.55-.23 4.38.24 3.52-4.5 3.34zm-213.13 78.67v52.82c0 1.8 4.36 5.53-4.5 5.62v-58.44zm94.24-96.66v58.45h-4.49V49.46zm17.94 17.99v40.46h-4.49V67.45zm2.25 96.66v40.45h-4.5V164.1z"/></svg>